<svg version="1.2" xmlns="http://www.w3.org/2000/svg" viewBox="0 0 24 24" width="24" height="24">
	<title>icon-pages</title>
	<style>
		.s0 { opacity: .2;fill: #fb9778 } 
		.s1 { fill: #fb9778 } 
	</style>
	<path class="s0" d="m21 7.5l-9 5.3-9-5.3 9-5.3z"/>
	<path class="s1" d="m21.6 16.1q0.2 0.3 0.1 0.6-0.1 0.3-0.3 0.4l-9 5.3q-0.2 0.1-0.4 0.1-0.2 0-0.4-0.1l-9-5.3q-0.2-0.1-0.3-0.4-0.1-0.3 0.1-0.6 0.1-0.2 0.4-0.3 0.3-0.1 0.6 0.1l8.6 5 8.6-5q0.3-0.2 0.6-0.1 0.3 0.1 0.4 0.3zm-1-4.7l-8.6 5-8.6-5q-0.3-0.2-0.6-0.1-0.3 0.1-0.4 0.3-0.2 0.3-0.1 0.6 0.1 0.3 0.3 0.4l9 5.3q0.2 0.1 0.4 0.1 0.2 0 0.4-0.1l9-5.3q0.1 0 0.2-0.1 0.1-0.2 0.1-0.3 0.1-0.2 0.1-0.3-0.1-0.2-0.1-0.3-0.1-0.1-0.2-0.2-0.2-0.1-0.3-0.1-0.1-0.1-0.3 0-0.1 0-0.3 0.1zm-18.4-3.9q0.1-0.2 0.2-0.4 0.1-0.1 0.2-0.2l9-5.3q0.2-0.1 0.4-0.1 0.2 0 0.4 0.1l9 5.3q0.2 0.1 0.3 0.2 0.1 0.2 0.1 0.4 0 0.2-0.1 0.4-0.1 0.1-0.3 0.2l-9 5.3q-0.2 0.1-0.4 0.1-0.2 0-0.4-0.1l-9-5.3q-0.1-0.1-0.2-0.2-0.1-0.2-0.2-0.4zm2.3 0l7.5 4.4 7.5-4.4-7.5-4.4z"/>
</svg>