<svg version="1.2" xmlns="http://www.w3.org/2000/svg" viewBox="0 0 25 24" width="25" height="24">
	<title>icon-support</title>
	<style>
		.s0 { opacity: .2;fill: #fb9778 } 
		.s1 { fill: #fb9778 } 
	</style>
	<path class="s0" d="m21.5 9v12l-3.7-3h-9.1q-0.3 0-0.5-0.2-0.2-0.2-0.2-0.6v-3.7h8.3q0.3 0 0.5-0.2 0.2-0.2 0.2-0.5v-4.5h3.7q0.4 0 0.6 0.2 0.2 0.2 0.2 0.5z"/>
	<path class="s1" d="m20.8 7.5h-3.1v-3c0-0.4-0.1-0.8-0.4-1.1-0.3-0.2-0.7-0.4-1.1-0.4h-12c-0.3 0-0.7 0.2-1 0.4-0.3 0.3-0.5 0.7-0.5 1.1v12q0.1 0.2 0.2 0.4 0.1 0.2 0.3 0.3 0.2 0.1 0.4 0 0.2 0 0.4-0.1l3.2-2.7v2.9c0 0.3 0.2 0.7 0.5 1 0.3 0.3 0.7 0.5 1 0.5h8.8l3.5 2.8q0.2 0.1 0.5 0.2 0.3-0.1 0.5-0.3 0.2-0.2 0.2-0.5v-12c0-0.4-0.1-0.8-0.4-1.1-0.3-0.2-0.7-0.4-1.1-0.4zm-14 5.4l-2.5 2v-10.4h12v8.3l-9-0.1q-0.3 0.1-0.5 0.2zm14 6.5l-2.4-2q-0.2-0.1-0.5-0.2h-9.1v-3h7.5c0.4 0 0.8-0.1 1.1-0.4 0.3-0.3 0.4-0.7 0.4-1.1v-3.7h3z"/>
</svg>