<svg version="1.2" xmlns="http://www.w3.org/2000/svg" viewBox="0 0 25 24" width="25" height="24">
	<title>icon-color</title>
	<style>
		.s0 { opacity: .2;fill: #fb9778 } 
		.s1 { fill: #fb9778 } 
	</style>
	<path class="s0" d="m17 10.5l-9.5 9.5q-0.3 0.2-0.6 0.3-0.3-0.1-0.5-0.3l-1.9-1.9q-0.2-0.2-0.3-0.5 0.1-0.3 0.3-0.6l9.5-9.5z"/>
	<path class="s1" d="m23.7 14.3q0 0.3-0.2 0.5-0.2 0.2-0.5 0.2h-1.5v1.5q0 0.3-0.2 0.5-0.2 0.2-0.6 0.2-0.3 0-0.5-0.2-0.2-0.2-0.2-0.5v-1.5h-1.5q-0.3 0-0.5-0.2-0.2-0.2-0.3-0.6 0.1-0.3 0.3-0.5 0.2-0.2 0.5-0.2h1.5v-1.5q0-0.3 0.2-0.5 0.2-0.2 0.5-0.3 0.4 0.1 0.6 0.3 0.2 0.2 0.2 0.5v1.5h1.5q0.3 0 0.5 0.2 0.2 0.2 0.2 0.5zm-18-7.5h1.5v1.5q0.1 0.4 0.3 0.6 0.2 0.2 0.5 0.2 0.3 0 0.5-0.2 0.2-0.2 0.2-0.6v-1.5h1.5q0.4 0 0.6-0.2 0.2-0.2 0.2-0.5 0-0.3-0.2-0.5-0.2-0.2-0.6-0.3h-1.5v-1.5q0-0.3-0.2-0.5-0.2-0.2-0.5-0.2-0.3 0-0.5 0.2-0.2 0.2-0.3 0.5v1.5h-1.5q-0.3 0.1-0.5 0.3-0.2 0.2-0.2 0.5 0 0.3 0.2 0.5 0.2 0.2 0.5 0.2zm12 11.3h-0.7v-0.8q0-0.3-0.2-0.5-0.2-0.2-0.6-0.2-0.3 0-0.5 0.2-0.2 0.2-0.2 0.5v0.8h-0.8q-0.3 0-0.5 0.2-0.2 0.2-0.2 0.5 0 0.4 0.2 0.6 0.2 0.2 0.5 0.2h0.8v0.7q0 0.4 0.2 0.6 0.2 0.2 0.5 0.2 0.4 0 0.6-0.2 0.2-0.2 0.2-0.6v-0.7h0.7q0.4 0 0.6-0.2 0.2-0.2 0.2-0.6 0-0.3-0.2-0.5-0.2-0.2-0.6-0.2zm3.4-10.5l-13.1 13.1c-0.3 0.2-0.7 0.4-1.1 0.4-0.4 0-0.7-0.2-1-0.4l-2-2q-0.2-0.2-0.3-0.5-0.1-0.2-0.1-0.5 0-0.3 0.1-0.6 0.1-0.3 0.3-0.5l13.1-13.1q0.2-0.2 0.5-0.3 0.3-0.1 0.6-0.1 0.3 0 0.5 0.1 0.3 0.1 0.5 0.3l2 2q0.2 0.2 0.3 0.5 0.1 0.2 0.1 0.5 0 0.3-0.1 0.6-0.1 0.3-0.3 0.5zm-5.2 3l-1.9-1.9-9 9 1.9 1.9zm4.1-4.1l-1.9-1.9-3 3 1.9 1.9z"/>
</svg>