<svg version="1.2" xmlns="http://www.w3.org/2000/svg" viewBox="0 0 25 24" width="25" height="24">
	<title>icon-responsive</title>
	<style>
		.s0 { opacity: .2;fill: #fb9778 } 
		.s1 { fill: #fb9778 } 
	</style>
	<path class="s0" d="m18.5 3.8v16.4c0 0.4-0.2 0.8-0.4 1.1-0.3 0.3-0.7 0.5-1.1 0.5h-9c-0.4 0-0.8-0.2-1.1-0.5-0.2-0.3-0.4-0.7-0.4-1v-16.5c0-0.4 0.2-0.8 0.4-1.1 0.3-0.3 0.7-0.4 1.1-0.4h9c0.4 0 0.8 0.1 1.1 0.4 0.2 0.3 0.4 0.7 0.4 1.1z"/>
	<path class="s1" d="m17 1.5h-9c-0.6 0-1.2 0.2-1.6 0.7-0.4 0.4-0.6 1-0.6 1.6v16.4c0 0.6 0.2 1.2 0.6 1.6 0.4 0.5 1 0.7 1.6 0.7h9c0.6 0 1.2-0.2 1.6-0.7 0.4-0.4 0.6-1 0.6-1.5v-16.5c0-0.6-0.2-1.2-0.6-1.6-0.4-0.5-1-0.7-1.6-0.7zm0.8 18.8q-0.1 0.3-0.3 0.5-0.2 0.2-0.5 0.2h-9q-0.3 0-0.5-0.2-0.2-0.2-0.3-0.5v-16.6q0.1-0.3 0.3-0.5 0.2-0.2 0.5-0.2h9q0.3 0 0.5 0.2 0.2 0.2 0.2 0.6zm-4.1-14.7q0 0.4-0.2 0.7-0.2 0.2-0.5 0.4-0.3 0.1-0.6 0-0.4 0-0.6-0.3-0.2-0.2-0.3-0.6-0.1-0.3 0.1-0.6 0.1-0.3 0.4-0.5 0.3-0.2 0.6-0.2c0.3 0 0.6 0.1 0.8 0.3 0.2 0.2 0.3 0.5 0.3 0.8z"/>
</svg>