<svg version="1.2" xmlns="http://www.w3.org/2000/svg" viewBox="0 0 24 24" width="24" height="24">
	<title>icon-sidebar</title>
	<style>
		.s0 { opacity: .2;fill: #fb9778 } 
		.s1 { fill: #fb9778 } 
	</style>
	<path class="s0" d="m9.8 9.8l-0.1 9.7h-6q-0.3 0-0.5-0.2-0.2-0.2-0.2-0.6v-8.9z"/>
	<path class="s1" d="m20.3 3.8h-16.6c-0.3 0-0.7 0.1-1 0.4-0.3 0.3-0.4 0.7-0.4 1.1v13.4c0 0.4 0.1 0.8 0.4 1.1 0.3 0.3 0.7 0.4 1.1 0.4h16.4c0.4 0 0.8-0.1 1.1-0.4 0.3-0.3 0.5-0.7 0.5-1.1v-13.5c0-0.3-0.2-0.7-0.5-1-0.3-0.3-0.7-0.5-1-0.5zm0 1.5v3.8h-16.5v-3.8zm-16.5 5.3h5.2v8.3l-5.2-0.1zm16.5 8.3h-9.8v-8.3h9.8z"/>
</svg>