<svg version="1.2" xmlns="http://www.w3.org/2000/svg" viewBox="0 0 24 24" width="24" height="24">
	<title>icon-components</title>
	<style>
		.s0 { opacity: .2;fill: #fb9778 } 
		.s1 { fill: #fb9778 } 
	</style>
	<path class="s0" d="m19.1 15.7q0.6 0 1.1-0.2v4q0 0.3-0.2 0.5-0.2 0.2-0.5 0.2h-13.5q-0.3 0-0.5-0.2-0.2-0.2-0.3-0.5v-4q-0.6 0.3-1.2 0.2-0.7 0-1.3-0.4-0.5-0.3-0.9-0.9-0.3-0.6-0.3-1.3 0-0.6 0.3-1.2 0.4-0.6 0.9-1 0.6-0.4 1.3-0.4 0.6 0 1.2 0.3v-4.1q0.1-0.3 0.3-0.5 0.2-0.2 0.5-0.2h4.4q-0.3-0.6-0.3-1.3 0.1-0.7 0.4-1.2 0.4-0.6 1-0.9 0.6-0.3 1.2-0.3 0.7 0 1.3 0.3 0.6 0.3 1 0.9 0.3 0.5 0.4 1.2 0 0.7-0.3 1.3h4.4q0.3 0 0.5 0.2 0.2 0.2 0.2 0.5v4.1q-0.5-0.3-1.1-0.3-0.6 0-1.1 0.3-0.6 0.2-0.9 0.7-0.4 0.5-0.5 1-0.2 0.6 0 1.2 0.1 0.6 0.5 1.1 0.4 0.4 0.9 0.7 0.5 0.2 1.1 0.2z"/>
	<path class="s1" d="m20.7 14.9q-0.2-0.1-0.4-0.2-0.2 0-0.4 0.1-0.4 0.2-0.9 0.2-0.5 0-0.9-0.3-0.4-0.2-0.6-0.7-0.2-0.4-0.2-0.9 0-0.5 0.2-0.9 0.2-0.4 0.6-0.7 0.4-0.2 0.9-0.2 0.5-0.1 0.9 0.1 0.2 0.1 0.4 0.1 0.2 0 0.4-0.1 0.1-0.1 0.2-0.3 0.1-0.2 0.1-0.3v-4c0-0.4-0.2-0.8-0.4-1.1-0.3-0.3-0.7-0.4-1.1-0.4h-3.4q0-0.2 0-0.4 0-0.7-0.3-1.4-0.2-0.6-0.7-1.1c-0.5-0.4-1.1-0.7-1.7-0.8-0.6-0.2-1.3-0.1-1.9 0.1-0.6 0.3-1.1 0.7-1.5 1.2-0.3 0.5-0.6 1.1-0.6 1.7q0 0.3 0 0.7h-3.4c-0.4 0-0.8 0.1-1.1 0.4-0.2 0.3-0.4 0.7-0.4 1.1v3q-0.2-0.1-0.4 0-0.7 0-1.3 0.2-0.7 0.3-1.1 0.8-0.5 0.5-0.8 1.2-0.2 0.6-0.1 1.3c0 0.9 0.4 1.6 0.9 2.2 0.6 0.6 1.4 0.9 2.2 1q0.3 0 0.6 0v3c0 0.4 0.2 0.8 0.4 1.1 0.3 0.2 0.7 0.4 1.1 0.4h13.5c0.4 0 0.8-0.2 1.1-0.4 0.2-0.3 0.4-0.7 0.4-1.1v-4q0-0.2-0.1-0.4-0.1-0.1-0.2-0.2zm-1.2 4.6h-13.5v-4q0-0.2-0.1-0.4-0.1-0.1-0.2-0.2-0.2-0.1-0.4-0.2-0.2 0-0.4 0.1-0.4 0.2-0.9 0.2-0.5 0-0.9-0.3-0.4-0.2-0.6-0.7-0.2-0.4-0.2-0.9 0-0.5 0.2-0.9 0.2-0.4 0.6-0.7 0.4-0.2 0.9-0.2 0.5-0.1 0.9 0.1 0.2 0.1 0.4 0.1 0.2 0 0.4-0.1 0.1-0.1 0.2-0.3 0.1-0.2 0.1-0.3v-4h4.4q0.2-0.1 0.3-0.1 0.2-0.1 0.3-0.3 0.1-0.2 0.1-0.4 0-0.1 0-0.3-0.2-0.5-0.2-0.9 0-0.5 0.3-0.9 0.2-0.4 0.6-0.7 0.5-0.2 1-0.2 0.4 0 0.9 0.2 0.4 0.3 0.6 0.7 0.3 0.4 0.3 0.9 0 0.4-0.2 0.9 0 0.2 0 0.3 0 0.2 0.1 0.4 0.1 0.2 0.3 0.3 0.1 0 0.3 0.1h4.4v3q-0.3-0.1-0.6 0c-0.9 0-1.7 0.4-2.3 1.1-0.6 0.6-0.9 1.5-0.9 2.3 0.1 0.9 0.4 1.8 1.1 2.4 0.6 0.6 1.5 0.9 2.3 0.9q0.2 0 0.4 0z"/>
</svg>