<svg version="1.2" xmlns="http://www.w3.org/2000/svg" viewBox="0 0 25 24" width="25" height="24">
	<title>icon-icons</title>
	<style>
		.s0 { opacity: .2;fill: #fb9778 } 
		.s1 { fill: #fb9778 } 
	</style>
	<path class="s0" d="m22 12.5l-9 9q-0.1 0.1-0.2 0.2-0.1 0-0.3 0-0.1 0-0.3 0-0.1-0.1-0.2-0.2l-9-9q-0.1-0.1-0.2-0.2 0-0.2 0-0.3 0-0.1 0-0.3 0.1-0.1 0.2-0.2l9-9q0.1-0.1 0.2-0.2 0.2 0 0.3 0 0.2 0 0.3 0 0.1 0.1 0.2 0.2l9 9q0.2 0.2 0.2 0.5 0 0.3-0.2 0.5z"/>
	<path class="s1" d="m22.6 10.9l-9-9c-0.3-0.2-0.7-0.4-1.1-0.4-0.4 0-0.8 0.2-1.1 0.4l-9 9c-0.2 0.3-0.4 0.7-0.4 1.1 0 0.4 0.2 0.8 0.4 1.1l9 9c0.3 0.2 0.7 0.4 1.1 0.4 0.4 0 0.8-0.2 1.1-0.4l9-9c0.2-0.3 0.4-0.7 0.4-1.1 0-0.4-0.2-0.8-0.4-1.1zm-10.1 10.1l-9-9 9-9 9 9z"/>
</svg>