<svg version="1.2" xmlns="http://www.w3.org/2000/svg" viewBox="0 0 25 24" width="25" height="24">
	<title>icon-sass</title>
	<style>
		.s0 { opacity: .2;fill: #fb9778 } 
		.s1 { fill: #fb9778 } 
	</style>
	<path class="s0" d="m20 5.3v13.4q0 0.4-0.2 0.6-0.2 0.2-0.6 0.2h-13.4q-0.4 0-0.6-0.2-0.2-0.2-0.2-0.6v-13.4q0-0.4 0.2-0.6 0.2-0.2 0.6-0.2h13.5q0.3 0 0.5 0.2 0.2 0.2 0.2 0.6z"/>
	<path class="s1" d="m6 9.5l-3-3q-0.1-0.1-0.2-0.2-0.1-0.2-0.1-0.3 0-0.1 0.1-0.3 0.1-0.1 0.2-0.2l3-3q0.2-0.2 0.5-0.3 0.3 0.1 0.5 0.3 0.2 0.2 0.3 0.5-0.1 0.3-0.3 0.5l-2.4 2.5 2.4 2.5q0.2 0.2 0.3 0.5-0.1 0.3-0.3 0.5-0.2 0.2-0.5 0.3-0.3-0.1-0.5-0.3zm3.7 0q0.1 0.1 0.3 0.2 0.1 0.1 0.2 0.1 0.2 0 0.3-0.1 0.2-0.1 0.3-0.2l3-3q0.1-0.1 0.1-0.2 0.1-0.2 0.1-0.3 0-0.1-0.1-0.3 0-0.1-0.1-0.2l-3-3q-0.2-0.2-0.6-0.3-0.3 0.1-0.5 0.3-0.2 0.2-0.2 0.5 0 0.3 0.2 0.5l2.5 2.5-2.5 2.5q-0.1 0.1-0.1 0.2-0.1 0.2-0.1 0.3 0 0.1 0.1 0.3 0 0.1 0.1 0.2zm9.5-5.8h-2.2q-0.3 0.1-0.5 0.3-0.2 0.2-0.3 0.5 0.1 0.3 0.3 0.5 0.2 0.2 0.5 0.2h2.2v13.5h-13.5v-6q0-0.3-0.2-0.5-0.2-0.2-0.5-0.2-0.3 0-0.5 0.2-0.2 0.2-0.3 0.5v6c0 0.4 0.2 0.8 0.5 1.1 0.3 0.3 0.7 0.4 1 0.4h13.5c0.4 0 0.8-0.1 1.1-0.4 0.3-0.3 0.4-0.7 0.4-1.1v-13.5c0-0.3-0.1-0.7-0.4-1-0.3-0.3-0.7-0.5-1.1-0.5z"/>
</svg>