<svg version="1.2" xmlns="http://www.w3.org/2000/svg" viewBox="0 0 24 24" width="24" height="24">
	<title>icon-customize</title>
	<style>
		.s0 { opacity: .2;fill: #fb9778 } 
		.s1 { fill: #fb9778 } 
	</style>
	<path class="s0" d="m19.5 12c0 0.6-0.2 1.2-0.5 1.7-0.3 0.5-0.8 0.8-1.4 1.1-0.5 0.2-1.1 0.3-1.7 0.1-0.6-0.1-1.1-0.4-1.5-0.8-0.4-0.4-0.7-0.9-0.8-1.5-0.2-0.6-0.1-1.2 0.1-1.7 0.3-0.6 0.6-1.1 1.1-1.4 0.5-0.3 1.1-0.5 1.7-0.5 0.8 0 1.6 0.3 2.1 0.9 0.6 0.5 0.9 1.3 0.9 2.1z"/>
	<path class="s1" d="m16.5 5.3h-9c-1.8 0-3.5 0.7-4.8 1.9-1.2 1.3-2 3-2 4.8 0 1.8 0.8 3.5 2 4.8 1.3 1.2 3 2 4.8 2h9c1.8 0 3.5-0.8 4.8-2 1.2-1.3 2-3 2-4.8 0-1.8-0.8-3.5-2-4.8-1.3-1.2-3-1.9-4.8-1.9zm0 11.9h-9c-1.4 0-2.7-0.5-3.7-1.5-1-1-1.5-2.3-1.5-3.7 0-1.4 0.5-2.7 1.5-3.7 1-1 2.3-1.5 3.7-1.5h9c1.4 0 2.7 0.5 3.7 1.5 1 1 1.5 2.3 1.5 3.7 0 1.4-0.5 2.7-1.5 3.7-1 1-2.3 1.5-3.7 1.5zm0-8.9c-0.7 0-1.5 0.2-2.1 0.6-0.6 0.4-1.1 1-1.4 1.7-0.2 0.7-0.3 1.4-0.2 2.1 0.2 0.8 0.5 1.4 1 2 0.6 0.5 1.2 0.8 2 1 0.7 0.1 1.4 0 2.1-0.2 0.7-0.3 1.3-0.8 1.7-1.4 0.4-0.6 0.6-1.4 0.6-2.1 0-1-0.3-1.9-1-2.7-0.8-0.7-1.7-1-2.7-1zm0 6q-0.7-0.1-1.2-0.4-0.6-0.4-0.9-1-0.2-0.7-0.1-1.3 0.1-0.7 0.6-1.2 0.5-0.5 1.2-0.6 0.6-0.1 1.3 0.1 0.6 0.3 1 0.9 0.3 0.5 0.4 1.2c0 0.6-0.3 1.2-0.7 1.6-0.4 0.4-1 0.7-1.6 0.7z"/>
</svg>