<svg version="1.2" xmlns="http://www.w3.org/2000/svg" viewBox="0 0 25 24" width="25" height="24">
	<title>icon-update</title>
	<style>
		.s0 { opacity: .2;fill: #fb9778 } 
		.s1 { fill: #fb9778 } 
	</style>
	<path class="s0" d="m20.8 4.5l-0.1 4.5h-4.5zm-16.4 15l4.4-4.5h-4.5z"/>
	<path class="s1" d="m21 3.8q-0.2-0.1-0.4 0-0.2 0-0.4 0.2l-1.5 1.5c-1.9-1.6-4-2.5-6.2-2.5-4 0-6.4 2.4-6.5 2.5q-0.2 0.2-0.3 0.5 0.1 0.3 0.3 0.5 0.2 0.2 0.5 0.3 0.3-0.1 0.5-0.3c0.1 0 2.1-2 5.5-2 2.2 0 3.9 1 5.1 2l-1.9 2q-0.1 0.1-0.2 0.4 0 0.2 0.1 0.4 0 0.2 0.2 0.3 0.2 0.1 0.5 0.2h4.5q0.3-0.1 0.5-0.3 0.2-0.2 0.2-0.5v-4.5q0-0.2-0.1-0.4-0.2-0.2-0.4-0.3zm-1 4.4h-1.9l1.9-1.9zm-2 9.2c-0.1 0.1-2.1 2.1-5.5 2.1-2.2 0-3.9-1.1-5.1-2.1l1.9-1.9q0.1-0.2 0.2-0.4 0-0.2-0.1-0.4 0-0.2-0.2-0.4-0.2-0.1-0.4-0.1h-4.5q-0.4 0-0.6 0.2-0.2 0.3-0.2 0.6v4.5q0 0.2 0.1 0.4 0.2 0.2 0.4 0.3 0.2 0 0.4 0 0.2 0 0.4-0.2l1.5-1.5c1.9 1.6 4 2.5 6.2 2.5 4 0 6.4-2.4 6.5-2.5q0.2-0.2 0.3-0.5-0.1-0.3-0.3-0.6-0.2-0.2-0.5-0.2-0.3 0-0.5 0.2zm-13-1.7h1.9l-1.9 2z"/>
</svg>