<svg version="1.2" xmlns="http://www.w3.org/2000/svg" viewBox="0 0 24 24" width="24" height="24">
	<title>icon-chart</title>
	<style>
		.s0 { opacity: .2;fill: #fb9778 } 
		.s1 { fill: #fb9778 } 
	</style>
	<path class="s0" d="m9 3.5v6.8l-5.9 3.3c-0.3-2.1 0-4.2 1.1-6.1 1.1-1.9 2.8-3.3 4.8-4z"/>
	<path class="s1" d="m9.4 10.9q0.1-0.1 0.2-0.3 0.1-0.1 0.2-0.3v-6.8q-0.1-0.2-0.1-0.3-0.1-0.2-0.3-0.3-0.1-0.1-0.3-0.1-0.2 0-0.3 0c-2.2 0.8-4.1 2.3-5.2 4.3-1.2 2-1.6 4.4-1.2 6.7q0 0.2 0.2 0.3 0.1 0.1 0.2 0.2 0.2 0.1 0.4 0.1 0.2 0 0.3-0.1zm11.1-3.7q0-0.1 0-0.1 0 0 0 0c-0.9-1.5-2.1-2.7-3.6-3.6-1.5-0.8-3.1-1.3-4.8-1.3q-0.4 0-0.6 0.2-0.2 0.3-0.2 0.6v8.6l-7.4 4.3q-0.1 0.1-0.2 0.2-0.1 0.1-0.1 0.3-0.1 0.1-0.1 0.2 0.1 0.2 0.1 0.3c1.1 1.9 2.8 3.3 4.8 4.1 2 0.8 4.1 1 6.2 0.4 2.1-0.6 3.9-1.8 5.2-3.5 1.3-1.7 2-3.8 2-5.9 0-1.7-0.4-3.4-1.3-4.8zm-12.2-2.6v5.2l-4.5 2.6q0-0.2 0-0.4c0-1.5 0.4-3 1.2-4.3 0.8-1.3 1.9-2.4 3.3-3.1zm4.5-0.8c1.2 0.1 2.3 0.4 3.4 1 1 0.6 1.9 1.5 2.6 2.4l-6 3.5zm-0.8 16.5c-1.3 0-2.5-0.3-3.7-0.9-1.2-0.6-2.2-1.5-3-2.6l7.1-4.1 7.1-4.1c0.6 1.2 0.9 2.6 0.8 4-0.1 1.4-0.6 2.7-1.3 3.9-0.7 1.1-1.8 2.1-3 2.8-1.2 0.6-2.6 1-3.9 1z"/>
</svg>