<svg version="1.2" xmlns="http://www.w3.org/2000/svg" viewBox="0 0 20 20" width="20" height="20">
	<title>icon-circle-x</title>
	<style>
		.s0 { opacity: .2;fill: #03c9d7 } 
		.s1 { fill: #03c9d7 } 
	</style>
	<path class="s0" d="m17.5 10c0 1.5-0.4 2.9-1.3 4.2-0.8 1.2-2 2.2-3.3 2.7-1.4 0.6-2.9 0.7-4.4 0.5-1.4-0.3-2.8-1-3.8-2.1-1.1-1-1.8-2.4-2.1-3.8-0.2-1.5-0.1-3 0.5-4.4 0.5-1.3 1.5-2.5 2.7-3.3 1.3-0.9 2.7-1.3 4.2-1.3 2 0 3.9 0.8 5.3 2.2 1.4 1.4 2.2 3.3 2.2 5.3z"/>
	<path class="s1" d="m18.1 10c0 1.6-0.5 3.2-1.3 4.5-0.9 1.4-2.2 2.4-3.7 3-1.5 0.6-3.1 0.8-4.7 0.5-1.6-0.3-3-1.1-4.1-2.3-1.2-1.1-2-2.5-2.3-4.1-0.3-1.6-0.1-3.2 0.5-4.7 0.6-1.5 1.6-2.8 3-3.7 1.3-0.8 2.9-1.3 4.5-1.3 2.2 0 4.2 0.8 5.7 2.4 1.6 1.5 2.4 3.5 2.4 5.7zm-1.2 0c0-1.4-0.4-2.7-1.2-3.8-0.7-1.2-1.8-2-3.1-2.6-1.2-0.5-2.6-0.6-3.9-0.3-1.4 0.2-2.6 0.9-3.6 1.8-0.9 1-1.6 2.2-1.8 3.6-0.3 1.3-0.2 2.7 0.3 3.9 0.6 1.3 1.4 2.4 2.6 3.1 1.1 0.8 2.4 1.2 3.8 1.2 1.8 0 3.6-0.8 4.9-2 1.2-1.3 2-3.1 2-4.9zm-4-2.1l-2 2.1 2 2.1q0.1 0 0.2 0.2 0 0.1 0 0.2 0 0.1 0 0.2-0.1 0.2-0.2 0.2 0 0.1-0.2 0.2-0.1 0-0.2 0-0.1 0-0.2 0-0.2-0.1-0.2-0.2l-2.1-2-2.1 2q0 0.1-0.2 0.2-0.1 0-0.2 0-0.1 0-0.2 0-0.2-0.1-0.2-0.2-0.1 0-0.2-0.2 0-0.1 0-0.2 0-0.1 0-0.2 0.1-0.2 0.2-0.2l2-2.1-2-2.1q-0.2-0.1-0.2-0.4 0-0.3 0.2-0.4 0.1-0.2 0.4-0.2 0.3 0 0.4 0.2l2.1 2 2.1-2q0-0.1 0.2-0.2 0.1 0 0.2 0 0.1 0 0.2 0 0.2 0.1 0.2 0.2 0.1 0 0.2 0.2 0 0.1 0 0.2 0 0.1 0 0.2-0.1 0.2-0.2 0.2z"/>
</svg>